<?xml version="1.0" standalone="no"?>
<!DOCTYPE svg PUBLIC "-//W3C//DTD SVG 20010904//EN"
 "http://www.w3.org/TR/2001/REC-SVG-20010904/DTD/svg10.dtd">
<svg version="1.0" xmlns="http://www.w3.org/2000/svg"
 width="512.000000pt" height="512.000000pt" viewBox="0 0 512.000000 512.000000"
 preserveAspectRatio="xMidYMid meet">

<g transform="translate(0.000000,512.000000) scale(0.100000,-0.100000)"
fill="#000000" stroke="none">
<path d="M0 2560 l0 -2560 2560 0 2560 0 0 2560 0 2560 -2560 0 -2560 0 0
-2560z m2660 2359 c172 -21 355 -103 478 -214 29 -26 55 -58 58 -71 14 -55
-44 -116 -95 -99 -12 3 -49 31 -84 61 -74 64 -195 127 -292 150 -94 23 -260
23 -345 0 -84 -23 -191 -74 -259 -125 -73 -55 -118 -55 -147 1 -27 51 -11 82
69 140 117 82 260 139 398 157 93 12 125 12 219 0z m50 -335 c76 -22 157 -67
213 -118 55 -50 63 -93 25 -133 -33 -35 -77 -31 -130 14 -150 126 -341 131
-513 14 -96 -66 -188 41 -103 119 60 55 183 109 283 124 48 7 165 -4 225 -20z
m-37 -332 c79 -43 96 -108 40 -152 -32 -25 -63 -25 -94 -1 -41 32 -66 34 -110
12 -50 -26 -79 -27 -106 -1 -63 58 -26 128 87 167 49 17 125 7 183 -25z m55
-351 c214 -45 415 -190 525 -381 38 -65 77 -174 93 -258 57 -299 -78 -623
-331 -797 l-55 -38 0 -149 c0 -145 -1 -150 -25 -173 -13 -14 -31 -25 -40 -25
-13 0 -15 -30 -15 -240 l0 -240 565 0 565 0 0 200 0 200 -123 0 c-189 0 -289
34 -392 135 -61 60 -215 310 -215 349 0 15 11 38 25 51 24 25 27 25 197 25
246 0 332 -26 445 -137 l53 -51 0 107 0 108 -75 124 c-42 68 -84 148 -95 177
-25 67 -27 188 -3 258 22 66 179 340 206 359 57 40 89 14 176 -138 108 -190
124 -229 129 -323 6 -110 -11 -162 -103 -316 l-75 -127 0 -110 c0 -61 1 -111
3 -111 1 0 26 21 54 48 113 107 198 132 441 132 170 0 173 0 197 -25 14 -13
25 -36 25 -51 0 -39 -154 -289 -215 -349 -101 -99 -204 -135 -382 -135 l-113
0 0 -200 0 -200 370 0 371 0 24 -25 25 -24 0 -631 0 -631 -25 -24 -24 -25
-2351 0 -2351 0 -24 25 -25 24 0 631 0 631 25 24 24 25 381 0 380 0 0 200 0
200 -123 0 c-189 0 -289 34 -392 135 -61 60 -215 310 -215 349 0 15 11 38 25
51 24 25 27 25 197 25 246 0 332 -26 445 -137 l53 -51 0 107 0 107 -80 133
c-44 74 -87 156 -95 184 -20 67 -19 181 2 243 22 66 179 340 206 359 57 40 89
14 176 -138 108 -190 124 -229 129 -323 6 -110 -11 -162 -103 -316 l-75 -127
0 -110 c0 -61 1 -111 3 -111 1 0 26 21 54 48 113 107 198 132 441 132 170 0
173 0 197 -25 14 -13 25 -36 25 -51 0 -39 -154 -289 -215 -349 -101 -99 -204
-135 -382 -135 l-113 0 0 -200 0 -200 555 0 555 0 0 240 c0 210 -2 240 -15
240 -9 0 -27 11 -40 25 -24 23 -25 28 -25 173 l0 149 -56 38 c-333 230 -441
691 -243 1044 172 307 519 463 867 392z"/>
<path d="M2420 3744 c-234 -50 -436 -254 -485 -489 -67 -322 123 -648 435
-746 223 -70 472 -8 640 161 253 252 253 647 0 901 -155 156 -374 220 -590
173z m255 -159 c238 -62 393 -291 358 -531 -30 -212 -196 -377 -409 -407 -329
-48 -612 266 -529 586 67 258 329 417 580 352z"/>
<path d="M2468 3427 c-137 -52 -227 -168 -227 -297 -1 -94 -5 -91 137 -88
l125 3 34 100 c35 107 57 135 105 135 35 0 78 -40 78 -73 0 -13 -11 -56 -24
-95 l-25 -72 99 0 c99 0 100 0 106 26 11 43 -2 136 -27 189 -30 64 -90 124
-153 154 -62 29 -175 38 -228 18z"/>
<path d="M2365 2870 c4 -6 30 -23 58 -38 45 -23 64 -27 137 -27 84 0 126 14
200 64 10 8 -48 11 -193 11 -139 0 -206 -3 -202 -10z"/>
<path d="M991 3202 c-55 -94 -61 -113 -61 -184 0 -62 16 -104 74 -197 34 -53
39 -49 96 63 39 78 42 88 38 147 -4 63 -43 159 -89 220 -16 22 -16 22 -58 -49z"/>
<path d="M4031 3202 c-55 -94 -61 -113 -61 -184 0 -62 16 -104 74 -197 34 -53
39 -49 96 63 39 78 42 88 38 147 -4 63 -43 159 -89 220 -16 22 -16 22 -58 -49z"/>
<path d="M495 2344 c85 -135 155 -176 308 -182 l99 -4 -37 58 c-85 135 -155
176 -308 182 l-99 4 37 -58z"/>
<path d="M1413 2386 c-84 -27 -135 -70 -198 -170 l-37 -58 99 4 c152 6 223 47
307 181 l37 57 -83 -1 c-46 0 -102 -6 -125 -13z"/>
<path d="M3535 2344 c85 -135 155 -176 308 -182 l99 -4 -37 58 c-85 135 -155
176 -308 182 l-99 4 37 -58z"/>
<path d="M4453 2386 c-84 -27 -135 -70 -198 -170 l-37 -58 99 4 c152 6 223 47
307 181 l37 57 -83 -1 c-46 0 -102 -6 -125 -13z"/>
<path d="M2320 2299 l0 -59 240 0 240 0 0 59 0 58 -52 -15 c-35 -10 -98 -15
-188 -15 -90 0 -153 5 -187 15 l-53 15 0 -58z"/>
<path d="M2400 1497 l0 -582 80 -80 80 -80 80 80 80 80 0 422 0 423 -55 0
c-67 0 -105 29 -105 80 0 51 38 80 105 80 l55 0 0 80 0 80 -160 0 -160 0 0
-583z"/>
<path d="M320 920 l0 -520 2240 0 2240 0 0 520 0 520 -960 0 -960 0 0 -297 0
-297 -143 -143 c-188 -188 -166 -188 -354 0 l-143 143 0 297 0 297 -960 0
-960 0 0 -520z m1015 255 c50 -49 15 -135 -55 -135 -19 0 -40 9 -55 25 -16 15
-25 36 -25 55 0 19 9 40 25 55 15 16 36 25 55 25 19 0 40 -9 55 -25z m640 0
c50 -49 15 -135 -55 -135 -19 0 -40 9 -55 25 -16 15 -25 36 -25 55 0 19 9 40
25 55 15 16 36 25 55 25 19 0 40 -9 55 -25z m1440 0 c50 -49 15 -135 -55 -135
-41 0 -80 39 -80 80 0 41 39 80 80 80 19 0 40 -9 55 -25z m640 0 c50 -49 15
-135 -55 -135 -41 0 -80 39 -80 80 0 41 39 80 80 80 19 0 40 -9 55 -25z m560
-80 c50 -49 15 -135 -55 -135 -41 0 -80 39 -80 80 0 41 39 80 80 80 19 0 40
-9 55 -25z m-3840 -80 c16 -15 25 -36 25 -55 0 -19 -9 -40 -25 -55 -15 -16
-36 -25 -55 -25 -19 0 -40 9 -55 25 -16 15 -25 36 -25 55 0 19 9 40 25 55 15
16 36 25 55 25 19 0 40 -9 55 -25z m2880 0 c50 -49 15 -135 -55 -135 -41 0
-80 39 -80 80 0 41 39 80 80 80 19 0 40 -9 55 -25z m-1600 -240 c50 -49 15
-135 -55 -135 -19 0 -40 9 -55 25 -16 15 -25 36 -25 55 0 19 9 40 25 55 15 16
36 25 55 25 19 0 40 -9 55 -25z m-640 -80 c50 -49 15 -135 -55 -135 -41 0 -80
39 -80 80 0 19 9 40 25 55 15 16 36 25 55 25 19 0 40 -9 55 -25z m1680 0 c50
-49 15 -135 -55 -135 -41 0 -80 39 -80 80 0 41 39 80 80 80 19 0 40 -9 55 -25z
m1200 0 c50 -49 15 -135 -55 -135 -41 0 -80 39 -80 80 0 41 39 80 80 80 19 0
40 -9 55 -25z"/>
</g>
</svg>
